<svg width="1024" height="1024" viewBox="0 0 1024 1024" fill="none" xmlns="http://www.w3.org/2000/svg">
  <defs>
    <linearGradient id="gold" x1="246" y1="210" x2="812" y2="716" gradientUnits="userSpaceOnUse">
      <stop offset="0" stop-color="#FFD362"/>
      <stop offset="1" stop-color="#F3B72E"/>
    </linearGradient>
    <linearGradient id="teal" x1="282" y1="308" x2="658" y2="840" gradientUnits="userSpaceOnUse">
      <stop offset="0" stop-color="#56C9C2"/>
      <stop offset="1" stop-color="#0C748C"/>
    </linearGradient>
    <linearGradient id="ivory" x1="348" y1="430" x2="750" y2="900" gradientUnits="userSpaceOnUse">
      <stop offset="0" stop-color="#FFF8EC"/>
      <stop offset="1" stop-color="#F2E0B8"/>
    </linearGradient>
  </defs>

  <path d="M486 211C486 194 500 180 517 180C534 180 548 194 548 211V261C548 280 564 291 581 291C589 291 598 288 605 283L653 247C681 226 719 232 739 260C759 288 751 327 721 345L667 377C659 382 650 385 641 385H396C386 385 376 383 367 378L322 353C292 336 282 297 301 268C320 239 357 230 386 247L428 272C435 276 443 279 451 279C470 279 486 263 486 244V211Z" fill="url(#gold)"/>
  <path d="M342 430C377 364 455 322 566 327C630 330 676 343 703 367C729 391 729 426 700 456L604 555C586 573 576 597 576 624V764C576 787 584 808 602 828C579 837 553 842 525 842C424 842 349 799 311 711C273 623 283 525 342 430Z" fill="url(#teal)"/>
  <path d="M349 484C383 444 423 430 474 430C537 430 578 460 603 505C612 522 616 541 616 563V679C616 666 612 651 603 634C582 592 549 572 495 572H350C344 572 339 570 336 566C333 561 335 554 340 548L349 539C360 528 360 508 349 497C344 492 344 488 349 484Z" fill="url(#ivory)"/>
  <path d="M248 525L323 471C339 459 360 456 378 463C396 470 408 487 411 506L416 539H268C257 539 248 532 246 523C245 518 246 512 248 525Z" fill="url(#gold)"/>
  <path d="M298 522C308 488 344 466 389 466H428C451 466 469 484 469 507V539H268C266 522 279 522 298 522Z" fill="url(#gold)"/>
  <circle cx="421" cy="473" r="32" fill="#053D52"/>
  <path d="M447 455C440 454 433 456 427 462C421 468 418 476 418 484C433 483 445 471 447 455Z" fill="#FFF8EC"/>
  <path d="M344 575C370 542 405 525 448 525C493 525 531 542 561 576C586 604 599 636 599 672V821C575 831 550 836 522 836C440 836 378 813 335 766C292 719 271 661 271 592C271 588 271 584 272 580C277 576 284 575 293 575H344Z" fill="url(#teal)"/>
  <rect x="514" y="563" width="190" height="471" rx="95" transform="rotate(-45 514 563)" fill="url(#gold)"/>
  <rect x="502" y="602" width="157" height="385" rx="78.5" transform="rotate(45 502 602)" fill="url(#ivory)"/>
</svg>
