<svg version="1.1" xmlns="http://www.w3.org/2000/svg" style="display: block;" viewBox="27 421 1943 634" width="1943" height="634" preserveAspectRatio="xMidYMid meet">
<path transform="translate(0,0)" fill="rgb(0,97,140)" d="M 152.897 709.692 C 193.566 709.486 229.397 720.211 258.822 749.807 C 292.626 783.807 315.431 828.217 345.618 865.508 C 355.606 877.847 366.747 889.988 377.896 901.278 C 385.922 909.407 395.651 917.118 402.715 926.01 C 402.464 930.173 399.595 933.794 396.344 936.278 C 283.292 1022.7 104.745 931.571 115.386 787.602 C 117.385 760.563 126.991 732.399 143.184 710.669 L 152.897 709.692 z"/>
<path transform="translate(0,0)" fill="rgb(20,147,171)" d="M 548.138 541.476 C 561.695 541.187 575.289 541.882 588.56 544.734 C 587.618 596.999 550.597 667.381 513.718 703.951 C 467.932 749.353 431.042 760.71 368.813 761.086 C 360.307 761.146 336.673 761.017 329.615 757.761 C 328.428 755.87 327.753 754.7 328.048 752.306 C 334.321 701.324 377.328 645.487 409.769 610.312 C 448.837 567.951 491.436 543.099 548.138 541.476 z"/>
<path transform="translate(0,0)" fill="rgb(254,119,2)" d="M 329.498 771.053 C 346.561 770.327 365.664 771.134 382.99 770.832 C 399.057 771.022 415.349 769.652 431.334 771.695 C 488.688 779.027 529.77 829.233 550.492 879.669 C 557.035 895.595 570.524 944.442 564.148 959.413 C 551.555 962.154 539.742 961.731 527.074 960.671 C 464.3 955.416 408.766 922.169 369.205 873.828 C 347.121 846.843 325.654 807.184 329.498 771.053 z"/>
<path transform="translate(0,0)" fill="rgb(0,97,140)" d="M 284.431 528.441 C 292.648 528.449 300.857 528.964 309.012 529.98 C 336.245 533.383 383.88 547.502 406.159 567.057 C 406.875 567.685 408.066 571.582 407.594 572.166 C 398.86 582.962 387.855 591.913 378.813 602.514 C 353.5 631.206 338.425 657.953 331.587 695.444 C 329.361 658.539 322.002 632.484 292.311 608.139 C 266.61 587.885 231.924 585.103 201.955 596.924 C 173.036 608.33 156.502 627.276 144.218 655.044 C 150.078 578.427 211.52 532.311 284.431 528.441 z"/>
<path transform="translate(0,0)" fill="rgb(0,60,88)" fill-rule="evenodd" d="M 1874.5 691.418 C 1893.87 691.33 1917.02 690.706 1936.05 691.694 C 1937.23 705.785 1937.55 753.672 1934.63 766.011 C 1932.74 774.171 1929.1 781.823 1923.96 788.441 C 1911.51 804.331 1897.17 808.621 1878.24 810.88 C 1862.96 811.189 1848.07 807.045 1836.24 797.119 C 1824.1 786.883 1816.59 772.194 1815.4 756.36 C 1814.01 740.174 1819.23 724.114 1829.88 711.844 C 1842.07 697.679 1856.46 692.739 1874.5 691.418 z M 1872.65 724.385 C 1880.11 723.561 1887.58 725.928 1893.2 730.904 C 1898.83 735.879 1902.09 743 1902.19 750.509 C 1902.35 763.792 1892.7 775.165 1879.57 777.16 C 1870.04 778.608 1860.47 774.791 1854.55 767.18 C 1848.64 759.57 1847.3 749.356 1851.05 740.477 C 1854.81 731.599 1863.07 725.443 1872.65 724.385 z"/>
<path transform="translate(0,0)" fill="rgb(0,60,88)" fill-rule="evenodd" d="M 1034.76 694.314 C 1053.31 693.286 1082.14 693.167 1100.39 695.46 C 1105.66 696.122 1103.16 758.508 1101.92 764.973 C 1100.46 772.656 1097.55 779.99 1093.34 786.579 C 1083.36 801.981 1069.21 809.326 1051.72 812.94 C 970.937 819.562 954.273 710.793 1034.76 694.314 z M 1035.27 728.147 C 1049.29 724.112 1063.95 732.115 1068.14 746.094 C 1072.33 760.073 1064.48 774.819 1050.55 779.159 C 1041.4 782.008 1031.43 779.723 1024.43 773.174 C 1017.44 766.625 1014.5 756.823 1016.74 747.507 C 1018.98 738.19 1026.06 730.797 1035.27 728.147 z"/>
<path transform="translate(0,0)" fill="rgb(0,60,88)" fill-rule="evenodd" d="M 1599.58 691.276 C 1617.77 689.385 1636.58 696.133 1649.3 709.353 C 1667.47 728.237 1666.48 748.018 1666.43 772.315 C 1666.46 784.812 1666.3 797.308 1665.95 809.8 C 1650.21 810.539 1629.59 809.994 1613.5 809.997 C 1596.47 810.265 1584.34 809.51 1569.9 798.988 C 1557.15 789.83 1548.6 775.94 1546.16 760.428 C 1543.56 744.368 1547.57 727.94 1557.29 714.892 C 1568.02 700.62 1582.3 693.867 1599.58 691.276 z M 1601.49 724.364 C 1610.96 722.934 1620.46 726.718 1626.35 734.264 C 1632.24 741.81 1633.6 751.945 1629.92 760.78 C 1626.23 769.616 1618.07 775.778 1608.56 776.903 C 1594.19 778.603 1581.11 768.459 1579.18 754.114 C 1577.25 739.769 1587.18 726.526 1601.49 724.364 z"/>
<path transform="translate(0,0)" fill="rgb(0,60,88)" d="M 706.174 621.803 L 707.104 622.088 C 707.558 622.643 708.011 623.198 708.464 623.753 C 709.192 645.483 708.85 708.12 708.898 725.546 C 718.336 715.668 732.131 700.362 742.18 691.852 C 748.997 691.19 779.566 689.875 783.759 692.944 C 783.769 693.277 783.797 693.61 783.788 693.943 C 783.543 702.271 741.175 741.942 732.821 750.704 C 746.264 765.882 761.984 781.833 776.044 796.647 C 779.7 800.186 784.293 803.174 782.213 808.326 C 776.178 811.962 751.949 809.981 743.363 809.844 C 736.295 805.791 714.99 782.12 708.6 774.973 C 708.776 777.353 708.876 779.737 708.901 782.124 C 709.011 804.931 693.507 810.086 674.166 809.901 C 673.757 789.736 672.107 656.148 676.211 647.34 C 682.051 634.806 693.656 626.726 706.174 621.803 z"/>
<path transform="translate(0,0)" fill="rgb(0,60,88)" d="M 1226.7 691.3 C 1249.15 689.746 1271.17 702.611 1282.84 721.392 C 1287.21 728.416 1289.38 733.422 1287.48 741.822 C 1283.09 747.6 1229.8 768.478 1225.3 764.581 C 1200.58 743.161 1231.03 735.686 1247.05 730.439 C 1245.79 729.584 1244.49 728.789 1243.16 728.058 C 1212.06 710.656 1184.77 758.31 1221.01 775.499 C 1241.11 781.402 1242.5 767.843 1259.34 770.551 C 1264.05 771.309 1276.43 779.835 1278.9 784.072 C 1277.67 796.292 1251.01 808.232 1239.56 810.017 C 1224.12 812.537 1208.32 808.76 1195.68 799.532 C 1182.84 790.216 1174.26 776.154 1171.84 760.475 C 1166.33 723.315 1190.62 696.277 1226.7 691.3 z"/>
<path transform="translate(0,0)" fill="rgb(0,60,88)" d="M 908.635 691.392 C 923.838 690.787 940.239 697.528 950.971 708.355 C 969.543 727.089 968.203 748.174 968.085 772.608 L 967.862 809.954 C 946.865 810.437 933.699 810.963 933.777 784.301 C 933.851 759.063 942.61 733.493 911.84 724.669 C 879.152 725.933 884.824 758.638 885.724 781.649 C 886.879 811.175 877.484 810.469 851.605 809.867 C 850.698 798.431 851.017 745.269 853.181 736.019 C 855.211 727.205 859.267 718.985 865.027 712.011 C 876.616 698.042 891.152 693 908.635 691.392 z"/>
<path transform="translate(0,0)" fill="rgb(0,60,88)" d="M 1738.95 691.366 C 1754.7 689.7 1772 696.248 1783.18 707.483 C 1802.05 726.443 1801.12 746.78 1801.05 771.6 L 1800.83 809.91 C 1798.14 809.971 1787.71 810.405 1785.82 809.98 C 1740.84 799.861 1793.52 741.901 1746.53 725.018 C 1745.38 724.95 1744.22 724.912 1743.06 724.904 C 1715.76 724.791 1716.42 751.521 1717.35 771.402 C 1718.98 806.04 1718.79 810.686 1684.08 809.926 C 1683.98 795.307 1682.87 749.632 1685.31 738.006 C 1687.1 729.146 1690.91 720.817 1696.44 713.666 C 1707.45 699.526 1721.63 693.486 1738.95 691.366 z"/>
<path transform="translate(0,0)" fill="rgb(0,60,88)" d="M 1334.68 621.941 L 1337.09 622.58 C 1339.17 628.252 1338.07 681.387 1338.03 691.302 C 1348.91 691.27 1359.79 691.321 1370.67 691.453 C 1370.17 717.012 1365.24 725.346 1338.05 725.106 C 1337.69 754.066 1333.88 774.574 1370.6 776.511 C 1371 786.197 1370.64 797.928 1370.57 807.77 C 1370.25 809.089 1370.22 808.674 1369.05 809.918 C 1341.31 811.1 1318.55 799.435 1308.23 772.627 C 1306.02 766.833 1304.61 760.764 1304.05 754.589 C 1302.46 737.606 1303.65 717.315 1303.78 700.011 C 1304.06 664.879 1294.6 637.136 1334.68 621.941 z"/>
<path transform="translate(0,0)" fill="rgb(254,119,2)" d="M 347.213 453.179 C 382.98 455.37 352.731 490 365.646 501.113 C 378.169 505.092 398.181 476.514 408.621 508.983 C 405.097 520.294 395.03 542.049 381.015 537.305 C 365.302 531.987 353.166 526.778 336.416 523.192 C 312.791 518.336 304.206 518.442 280.34 518.923 C 272.025 503.327 260.106 474.779 285.566 467.698 C 298.598 462.606 307.848 494.336 317.764 489.364 C 335.18 480.629 322.389 460.447 347.213 453.179 z"/>
<path transform="translate(0,0)" fill="rgb(0,60,88)" d="M 1152.95 621.828 L 1154.43 622.123 C 1157.51 625.449 1155.99 644.567 1156 650.425 L 1156.09 705.468 L 1156.14 756.311 C 1156.16 783.856 1160.89 808.279 1124.78 810.239 C 1123.75 809.88 1123.03 809.935 1122.49 808.874 C 1120.72 805.371 1121.24 672.11 1121.74 659.499 C 1121.9 655.58 1122.18 651.117 1123.63 647.438 C 1128.47 635.101 1141.14 626.544 1152.95 621.828 z"/>
<path transform="translate(0,0)" fill="rgb(0,60,88)" d="M 1526.32 621.748 C 1528.47 622.278 1527.51 621.808 1529.04 623.517 C 1530.54 655.333 1528.55 691.443 1529.3 723.785 C 1528.64 745.619 1530.49 768.287 1528.38 789.998 C 1526.83 805.897 1510.46 809.787 1497.83 810.182 C 1496.12 809.732 1496.89 809.967 1495.39 808.414 C 1494.31 799.551 1495.13 788.76 1495.13 779.694 C 1495.16 739.03 1494.96 698.348 1495.08 657.686 C 1495.13 639.553 1511 627.889 1526.32 621.748 z"/>
<path transform="translate(0,0)" fill="rgb(0,60,88)" d="M 1921.84 811.269 C 1925.83 810.741 1931.88 810.726 1936.09 810.599 C 1936.18 813.644 1936.17 816.691 1936.05 819.735 C 1935.4 834.648 1927.51 849.57 1916.47 859.455 C 1904.26 870.194 1888.3 875.68 1872.07 874.719 C 1852.24 873.548 1839.06 864.81 1826.42 850.431 C 1808.57 824.118 1809.44 798.384 1847.88 817.531 C 1851.51 827.148 1855.41 835.116 1865.64 839.498 C 1872.04 842.221 1879.27 842.252 1885.69 839.584 C 1896.59 835.089 1899.94 826.958 1904.05 817.126 C 1910.4 813.75 1914.87 812.645 1921.84 811.269 z"/>
<path transform="translate(0,0)" fill="rgb(0,60,88)" d="M 981.72 816.078 C 993.493 815.798 1011.22 812.654 1017.32 824.262 C 1019.8 827.659 1023.46 834.764 1026.87 837.136 C 1043.53 848.886 1061.69 838.194 1069.9 821.797 C 1073.55 814.504 1099.02 813.998 1102.95 817.394 C 1104.6 824.08 1099.19 837.43 1096.22 843.536 C 1093.98 847.063 1092.11 849.812 1089.39 853.019 C 1078.67 865.691 1063.29 873.499 1046.74 874.673 C 1030.37 875.835 1014.21 870.402 1001.87 859.585 C 988.689 847.942 982.662 833.415 981.72 816.078 z"/>
<path transform="translate(0,0)" fill="rgb(0,60,88)" d="M 825.314 692.192 C 828.988 691.593 829.401 691.513 833.062 691.857 C 834.901 693.828 834.527 697.242 834.587 699.918 C 834.86 711.887 836.502 801.369 831.756 806.006 C 826.262 811.374 815.87 810.037 808.75 809.985 C 804.781 810.102 803.547 810.474 800.896 807.422 C 799.132 800.963 798.823 720.212 802.448 709.976 C 805.529 701.276 816.294 695.381 825.314 692.192 z"/>
<path transform="translate(0,0)" fill="rgb(254,119,2)" d="M 143.184 710.669 C 127.691 709.258 106.303 703.679 93.5758 695.232 C 59.005 672.287 127.643 653.379 142.839 651.86 C 159.414 668.061 160.218 688.764 152.897 709.692 L 143.184 710.669 z"/>
<path transform="translate(0,0)" fill="rgb(0,60,88)" d="M 1407.29 726.176 C 1427.34 724.873 1456.91 725.848 1477.65 725.934 C 1477.39 741.906 1474.03 751.329 1458.83 758.508 C 1451.23 759.335 1395.48 759.909 1389.05 758.423 C 1386.77 753.697 1389.09 745.92 1390.81 741.114 C 1393.62 733.233 1400.07 729.385 1407.29 726.176 z"/>
<path transform="translate(0,0)" fill="rgb(0,97,140)" fill-rule="evenodd" d="M 232.391 656.855 C 244.823 655.617 255.994 664.468 257.632 676.854 C 259.271 689.239 250.785 700.69 238.459 702.728 C 230.124 704.106 221.7 700.833 216.48 694.19 C 211.261 687.546 210.076 678.587 213.388 670.814 C 216.7 663.042 223.984 657.692 232.391 656.855 z M 239.725 665.597 C 243.497 664.873 247.189 667.184 248.186 670.894 C 249.183 674.603 247.148 678.454 243.52 679.718 C 240.927 680.623 238.045 680.002 236.055 678.109 C 234.064 676.216 233.299 673.369 234.072 670.733 C 234.845 668.097 237.027 666.115 239.725 665.597 z"/>
<path transform="translate(0,0)" fill="rgb(255,255,255)" d="M 239.725 665.597 C 243.497 664.873 247.189 667.184 248.186 670.894 C 249.183 674.603 247.148 678.454 243.52 679.718 C 240.927 680.623 238.045 680.002 236.055 678.109 C 234.064 676.216 233.299 673.369 234.072 670.733 C 234.845 668.097 237.027 666.115 239.725 665.597 z"/>
<path transform="translate(0,0)" fill="rgb(254,119,2)" d="M 814.796 627.447 C 820.514 626.422 826.39 628.028 830.792 631.819 C 835.194 635.61 837.653 641.183 837.487 646.99 C 837.226 656.145 830.565 663.855 821.545 665.442 C 811.061 667.287 801.064 660.294 799.203 649.813 C 797.341 639.333 804.319 629.325 814.796 627.447 z"/>
</svg>
