<svg width="256" height="256" viewBox="0 0 256 256" fill="none" xmlns="http://www.w3.org/2000/svg">
  <defs>
    <linearGradient id="paper" x1="48" y1="26" x2="194" y2="228" gradientUnits="userSpaceOnUse">
      <stop offset="0" stop-color="#FFF9EF"/>
      <stop offset="1" stop-color="#F4E5C2"/>
    </linearGradient>
    <linearGradient id="corner" x1="150" y1="44" x2="204" y2="92" gradientUnits="userSpaceOnUse">
      <stop offset="0" stop-color="#FFD86F"/>
      <stop offset="1" stop-color="#F1B52E"/>
    </linearGradient>
    <linearGradient id="mark" x1="82" y1="84" x2="177" y2="180" gradientUnits="userSpaceOnUse">
      <stop offset="0" stop-color="#55CAC2"/>
      <stop offset="1" stop-color="#0A728A"/>
    </linearGradient>
    <linearGradient id="node" x1="103" y1="94" x2="165" y2="164" gradientUnits="userSpaceOnUse">
      <stop offset="0" stop-color="#0A4E65"/>
      <stop offset="1" stop-color="#06394A"/>
    </linearGradient>
  </defs>

  <path d="M58 66C58 52.7452 68.7452 42 82 42H106C112.627 42 118 36.6274 118 30C118 23.3726 123.373 18 130 18C136.627 18 142 23.3726 142 30C142 36.6274 147.373 42 154 42H160.745C165.518 42 170.095 43.8964 173.47 47.2721L204.728 78.5296C208.104 81.9053 210 86.4819 210 91.2548V196C210 209.255 199.255 220 186 220H82C68.7452 220 58 209.255 58 196V66Z" fill="url(#paper)"/>
  <path d="M162 46V78C162 89.0457 170.954 98 182 98H206" fill="url(#corner)"/>
  <path d="M58 66C58 52.7452 68.7452 42 82 42H106C112.627 42 118 36.6274 118 30C118 23.3726 123.373 18 130 18C136.627 18 142 23.3726 142 30C142 36.6274 147.373 42 154 42H160.745C165.518 42 170.095 43.8964 173.47 47.2721L204.728 78.5296C208.104 81.9053 210 86.4819 210 91.2548V196C210 209.255 199.255 220 186 220H82C68.7452 220 58 209.255 58 196V66Z" stroke="#083E52" stroke-width="8" stroke-linejoin="round"/>
  <path d="M162 46V78C162 89.0457 170.954 98 182 98H206" stroke="#083E52" stroke-width="8" stroke-linejoin="round"/>

  <rect x="80" y="84" width="96" height="96" rx="32" fill="url(#mark)"/>
  <path d="M128 96C122.477 96 118 100.477 118 106V121.858C118 125.04 116.484 128.032 113.915 129.915L99.915 140.175C97.3462 142.058 95.8302 145.05 95.8302 148.232V152C95.8302 157.523 100.307 162 105.83 162H110C115.523 162 120 157.523 120 152V145.213C120 142.031 121.516 139.039 124.085 137.156L138.085 126.896C140.654 125.013 142.17 122.021 142.17 118.839V106C142.17 100.477 137.693 96 132.17 96H128Z" fill="#FFF9EF"/>
  <path d="M144 108C144 102.477 148.477 98 154 98H158C163.523 98 168 102.477 168 108V111.787C168 114.969 166.484 117.961 163.915 119.844L149.915 130.104C147.346 131.987 145.83 134.979 145.83 138.161V152C145.83 157.523 150.307 162 155.83 162H160C165.523 162 170 157.523 170 152V136.142C170 132.96 171.516 129.968 174.085 128.085L178 125.216V148C178 165.673 163.673 180 146 180H110C92.3269 180 78 165.673 78 148V130C78 112.327 92.3269 98 110 98H117.5C115.955 100.112 115 102.716 115 105.543V108.5C115 110.433 116.567 112 118.5 112H140.5C142.433 112 144 110.433 144 108.5V108Z" fill="url(#node)"/>
  <circle cx="109" cy="148" r="8" fill="#FFD86F"/>
  <circle cx="158" cy="112" r="8" fill="#FFD86F"/>
  <circle cx="160" cy="152" r="8" fill="#FFD86F"/>
</svg>
