<svg xmlns="http://www.w3.org/2000/svg" viewBox="0 0 256 256" role="img" aria-labelledby="title desc">
  <title id="title">Kinglet extension icon</title>
  <desc id="desc">Rounded Kinglet extension icon.</desc>
  <rect x="20" y="20" width="216" height="216" rx="58" fill="#101418"/>
  <rect x="44" y="44" width="168" height="168" rx="42" fill="none" stroke="#2D3A42" stroke-width="4"/>
  <g stroke-linecap="round" stroke-linejoin="round">
    <path d="M82 76 V180" stroke="#F5F1E8" stroke-width="28"/>
    <path d="M162 78 L108 128 L162 178" fill="none" stroke="#F2B84B" stroke-width="28"/>
    <path d="M62 102 L44 128 L62 154" fill="none" stroke="#36D1DC" stroke-width="12"/>
    <path d="M194 102 L212 128 L194 154" fill="none" stroke="#36D1DC" stroke-width="12"/>
  </g>
  <g fill="#F5F1E8">
    <rect x="112" y="83" width="38" height="12" rx="6"/>
    <rect x="112" y="122" width="30" height="12" rx="6"/>
    <rect x="112" y="161" width="38" height="12" rx="6"/>
  </g>
  <path d="M86 66 L102 48 L118 66 H86 Z M120 66 L136 48 L152 66 H120 Z M154 66 L170 48 L186 66 H154 Z" fill="#F2B84B"/>
</svg>
