<svg xmlns="http://www.w3.org/2000/svg" viewBox="0 0 128 128" role="img" aria-labelledby="title desc">
  <title id="title">Kinglet .kl file icon</title>
  <desc id="desc">Stable rounded document icon for Kinglet source files.</desc>
  <defs>
    <linearGradient id="doc" x1="22" y1="10" x2="106" y2="120" gradientUnits="userSpaceOnUse">
      <stop offset="0" stop-color="#202A31"/>
      <stop offset="1" stop-color="#101418"/>
    </linearGradient>
  </defs>

  <path d="M24 10 H76 L108 42 V110 C108 116.6 102.6 122 96 122 H24 C17.4 122 12 116.6 12 110 V22 C12 15.4 17.4 10 24 10 Z" fill="url(#doc)"/>
  <path d="M76 10 V35 C76 39.4 79.6 43 84 43 H108 Z" fill="#36D1DC"/>
  <rect x="24" y="24" width="72" height="78" rx="18" fill="#172026"/>

  <g stroke-linecap="round" stroke-linejoin="round">
    <path d="M43 45 V76" stroke="#F5F1E8" stroke-width="8"/>
    <path d="M77 45 L55 61 L77 76" fill="none" stroke="#F2B84B" stroke-width="8"/>
    <path d="M35 52 L27 61 L35 70" fill="none" stroke="#36D1DC" stroke-width="5"/>
    <path d="M85 52 L93 61 L85 70" fill="none" stroke="#36D1DC" stroke-width="5"/>
  </g>
  <g fill="#F5F1E8">
    <rect x="54" y="47" width="16" height="5" rx="2.5"/>
    <rect x="54" y="59" width="12" height="5" rx="2.5"/>
    <rect x="54" y="71" width="16" height="5" rx="2.5"/>
  </g>
  <rect x="38" y="88" width="52" height="21" rx="10.5" fill="#F2B84B"/>
  <text x="64" y="104" text-anchor="middle" font-family="Menlo, Consolas, monospace" font-size="14" font-weight="800" fill="#101418">.kl</text>
</svg>
